<?xml version="1.0" encoding="UTF-8" standalone="no"?>
<svg
   xmlns:ns3="http://www.iki.fi/pav/software/textext/"
   xmlns:dc="http://purl.org/dc/elements/1.1/"
   xmlns:cc="http://creativecommons.org/ns#"
   xmlns:rdf="http://www.w3.org/1999/02/22-rdf-syntax-ns#"
   xmlns:svg="http://www.w3.org/2000/svg"
   xmlns="http://www.w3.org/2000/svg"
   xmlns:sodipodi="http://sodipodi.sourceforge.net/DTD/sodipodi-0.dtd"
   xmlns:inkscape="http://www.inkscape.org/namespaces/inkscape"
   version="1.1"
   id="svg2"
   xml:space="preserve"
   width="356.63229"
   height="364.0238"
   viewBox="0 0 356.63229 364.0238"
   sodipodi:docname="triangulo_sol.svg"
   inkscape:version="1.0.2 (1.0.2+r75+1)"><metadata
     id="metadata8"><rdf:RDF><cc:Work
         rdf:about=""><dc:format>image/svg+xml</dc:format><dc:type
           rdf:resource="http://purl.org/dc/dcmitype/StillImage" /><dc:title></dc:title></cc:Work></rdf:RDF></metadata><defs
     id="defs6"><marker
       style="overflow:visible;"
       id="Arrow2Lend"
       refX="0.0"
       refY="0.0"
       orient="auto"
       inkscape:stockid="Arrow2Lend"
       inkscape:isstock="true"><path
         transform="scale(1.1) rotate(180) translate(1,0)"
         d="M 8.7185878,4.0337352 L -2.2072895,0.016013256 L 8.7185884,-4.0017078 C 6.9730900,-1.6296469 6.9831476,1.6157441 8.7185878,4.0337352 z "
         style="fill-rule:evenodd;stroke-width:0.625;stroke-linejoin:round;stroke:#ff0013;stroke-opacity:1;fill:#ff0013;fill-opacity:1"
         id="path902" /></marker><marker
       style="overflow:visible;"
       id="marker2577"
       refX="0.0"
       refY="0.0"
       orient="auto"
       inkscape:stockid="Arrow1Lend"
       inkscape:isstock="true"><path
         transform="scale(0.8) rotate(180) translate(12.5,0)"
         style="fill-rule:evenodd;stroke:#ff0013;stroke-width:1pt;stroke-opacity:1;fill:#ff0013;fill-opacity:1"
         d="M 0.0,0.0 L 5.0,-5.0 L -12.5,0.0 L 5.0,5.0 L 0.0,0.0 z "
         id="path2575" /></marker><marker
       style="overflow:visible"
       id="marker2537"
       refX="0"
       refY="0"
       orient="auto"
       inkscape:stockid="Arrow1Lend"
       inkscape:isstock="true"><path
         transform="matrix(-0.8,0,0,-0.8,-10,0)"
         style="fill:#ff0000;fill-opacity:1;fill-rule:evenodd;stroke:#000000;stroke-width:1pt;stroke-opacity:1"
         d="M 0,0 5,-5 -12.5,0 5,5 Z"
         id="path2535" /></marker><marker
       style="overflow:visible;"
       id="Arrow1Lend"
       refX="0.0"
       refY="0.0"
       orient="auto"
       inkscape:stockid="Arrow1Lend"
       inkscape:isstock="true"><path
         transform="scale(0.8) rotate(180) translate(12.5,0)"
         style="fill-rule:evenodd;stroke:#0029c9;stroke-width:1pt;stroke-opacity:1;fill:#0029c9;fill-opacity:1"
         d="M 0.0,0.0 L 5.0,-5.0 L -12.5,0.0 L 5.0,5.0 L 0.0,0.0 z "
         id="path884" /></marker><marker
       style="overflow:visible"
       id="Arrow1Lend-3"
       refX="0"
       refY="0"
       orient="auto"
       inkscape:stockid="Arrow1Lend"
       inkscape:isstock="true"><path
         transform="matrix(-0.8,0,0,-0.8,-10,0)"
         style="fill:#0029c9;fill-opacity:1;fill-rule:evenodd;stroke:#0029c9;stroke-width:1pt;stroke-opacity:1"
         d="M 0,0 5,-5 -12.5,0 5,5 Z"
         id="path884-6" /></marker><marker
       style="overflow:visible"
       id="Arrow1Lend-3-5"
       refX="0"
       refY="0"
       orient="auto"
       inkscape:stockid="Arrow1Lend"
       inkscape:isstock="true"
       inkscape:collect="always"><path
         transform="matrix(-0.8,0,0,-0.8,-10,0)"
         style="fill:#0029c9;fill-opacity:1;fill-rule:evenodd;stroke:#0029c9;stroke-width:1pt;stroke-opacity:1"
         d="M 0,0 5,-5 -12.5,0 5,5 Z"
         id="path884-6-3" /></marker><g
       id="id-37905af5-a863-46cf-b1df-ff9a12d78d1a-7"><symbol
         overflow="visible"
         id="id-f999b03c-d2ca-4eaa-9df1-8aaa2a2fdd54-0"><path
           style="stroke:none;stroke-width:0"
           d=""
           id="id-64859f4d-d144-4320-aaff-8cf1d0c9ca5a-9" /></symbol><symbol
         overflow="visible"
         id="id-ecf232e9-187a-4302-a9c8-d22c23891d76-3"><path
           style="stroke:none;stroke-width:0"
           d="m 5.359375,-5.9375 c -0.140625,0.140625 -0.46875,0.421875 -0.46875,0.59375 0,0.09375 0.09375,0.203125 0.1875,0.203125 0.09375,0 0.140625,-0.078125 0.203125,-0.140625 C 5.390625,-5.421875 5.625,-5.703125 6.0625,-5.921875 6.125,-5.96875 6.234375,-6.015625 6.234375,-6.125 6.234375,-6.234375 6.15625,-6.28125 6.09375,-6.328125 5.875,-6.484375 5.765625,-6.65625 5.6875,-6.890625 5.65625,-6.984375 5.625,-7.125 5.484375,-7.125 c -0.140625,0 -0.203125,0.140625 -0.203125,0.21875 0,0.046875 0.078125,0.359375 0.234375,0.578125 H 2.15625 c -0.15625,0 -0.34375,0 -0.34375,0.203125 0,0.1875 0.1875,0.1875 0.34375,0.1875 z m 0,0"
           id="id-c8c66ba9-7f6b-41f8-ad29-3ee65f89c939-6" /></symbol><symbol
         overflow="visible"
         id="id-dd761aa7-6f61-40dc-a172-3d0e517cb99a-0"><path
           style="stroke:none;stroke-width:0"
           d="M 4.6875,-3.765625 C 4.703125,-3.8125 4.71875,-3.875 4.71875,-3.9375 c 0,-0.171875 -0.109375,-0.265625 -0.28125,-0.265625 -0.09375,0 -0.375,0.0625 -0.40625,0.421875 -0.1875,-0.359375 -0.53125,-0.625 -0.9375,-0.625 -1.125,0 -2.359375,1.390625 -2.359375,2.828125 0,0.984375 0.59375,1.578125 1.3125,1.578125 0.59375,0 1.0625,-0.46875 1.15625,-0.578125 L 3.21875,-0.5625 C 3.015625,0.3125 2.890625,0.734375 2.890625,0.75 2.84375,0.84375 2.515625,1.828125 1.453125,1.828125 1.265625,1.828125 0.9375,1.8125 0.65625,1.71875 0.953125,1.640625 1.0625,1.375 1.0625,1.203125 c 0,-0.15625 -0.109375,-0.34375 -0.375,-0.34375 -0.21875,0 -0.53125,0.171875 -0.53125,0.578125 0,0.40625 0.359375,0.609375 1.3125,0.609375 1.25,0 1.96875,-0.78125 2.125,-1.375 z M 3.40625,-1.28125 C 3.34375,-1.015625 3.109375,-0.765625 2.890625,-0.578125 2.6875,-0.40625 2.375,-0.21875 2.078125,-0.21875 c -0.5,0 -0.640625,-0.515625 -0.640625,-0.921875 0,-0.46875 0.28125,-1.65625 0.5625,-2.15625 C 2.265625,-3.78125 2.6875,-4.1875 3.109375,-4.1875 c 0.65625,0 0.796875,0.8125 0.796875,0.859375 0,0.046875 -0.015625,0.109375 -0.03125,0.140625 z m 0,0"
           id="id-aafbad09-3a62-4a15-bffb-3e19b526fef7-6" /></symbol><symbol
         overflow="visible"
         id="id-5aaee7f0-7d7c-43d5-8f58-034813796c72-2"><path
           style="stroke:none;stroke-width:0"
           d=""
           id="id-976f153d-5858-4d0c-829b-8ede4adb5020-6" /></symbol><symbol
         overflow="visible"
         id="id-5517ef3f-082e-413e-8204-a2c434752f32-1"><path
           style="stroke:none;stroke-width:0"
           d="m 2.328125,-4.4375 c 0,-0.1875 0,-0.1875 -0.203125,-0.1875 -0.453125,0.4375 -1.078125,0.4375 -1.359375,0.4375 v 0.25 c 0.15625,0 0.625,0 1,-0.1875 v 3.546875 c 0,0.234375 0,0.328125 -0.6875,0.328125 H 0.8125 V 0 c 0.125,0 0.984375,-0.03125 1.234375,-0.03125 0.21875,0 1.09375,0.03125 1.25,0.03125 V -0.25 H 3.03125 c -0.703125,0 -0.703125,-0.09375 -0.703125,-0.328125 z m 0,0"
           id="id-45356f39-daae-4eca-b56d-6717c6da42a6-8" /></symbol></g><g
       id="id-37905af5-a863-46cf-b1df-ff9a12d78d1a-9"><symbol
         overflow="visible"
         id="id-f999b03c-d2ca-4eaa-9df1-8aaa2a2fdd54-7"><path
           style="stroke:none;stroke-width:0"
           d=""
           id="id-64859f4d-d144-4320-aaff-8cf1d0c9ca5a-3" /></symbol><symbol
         overflow="visible"
         id="id-ecf232e9-187a-4302-a9c8-d22c23891d76-6"><path
           style="stroke:none;stroke-width:0"
           d="m 5.359375,-5.9375 c -0.140625,0.140625 -0.46875,0.421875 -0.46875,0.59375 0,0.09375 0.09375,0.203125 0.1875,0.203125 0.09375,0 0.140625,-0.078125 0.203125,-0.140625 C 5.390625,-5.421875 5.625,-5.703125 6.0625,-5.921875 6.125,-5.96875 6.234375,-6.015625 6.234375,-6.125 6.234375,-6.234375 6.15625,-6.28125 6.09375,-6.328125 5.875,-6.484375 5.765625,-6.65625 5.6875,-6.890625 5.65625,-6.984375 5.625,-7.125 5.484375,-7.125 c -0.140625,0 -0.203125,0.140625 -0.203125,0.21875 0,0.046875 0.078125,0.359375 0.234375,0.578125 H 2.15625 c -0.15625,0 -0.34375,0 -0.34375,0.203125 0,0.1875 0.1875,0.1875 0.34375,0.1875 z m 0,0"
           id="id-c8c66ba9-7f6b-41f8-ad29-3ee65f89c939-1" /></symbol><symbol
         overflow="visible"
         id="id-dd761aa7-6f61-40dc-a172-3d0e517cb99a-2"><path
           style="stroke:none;stroke-width:0"
           d="M 4.6875,-3.765625 C 4.703125,-3.8125 4.71875,-3.875 4.71875,-3.9375 c 0,-0.171875 -0.109375,-0.265625 -0.28125,-0.265625 -0.09375,0 -0.375,0.0625 -0.40625,0.421875 -0.1875,-0.359375 -0.53125,-0.625 -0.9375,-0.625 -1.125,0 -2.359375,1.390625 -2.359375,2.828125 0,0.984375 0.59375,1.578125 1.3125,1.578125 0.59375,0 1.0625,-0.46875 1.15625,-0.578125 L 3.21875,-0.5625 C 3.015625,0.3125 2.890625,0.734375 2.890625,0.75 2.84375,0.84375 2.515625,1.828125 1.453125,1.828125 1.265625,1.828125 0.9375,1.8125 0.65625,1.71875 0.953125,1.640625 1.0625,1.375 1.0625,1.203125 c 0,-0.15625 -0.109375,-0.34375 -0.375,-0.34375 -0.21875,0 -0.53125,0.171875 -0.53125,0.578125 0,0.40625 0.359375,0.609375 1.3125,0.609375 1.25,0 1.96875,-0.78125 2.125,-1.375 z M 3.40625,-1.28125 C 3.34375,-1.015625 3.109375,-0.765625 2.890625,-0.578125 2.6875,-0.40625 2.375,-0.21875 2.078125,-0.21875 c -0.5,0 -0.640625,-0.515625 -0.640625,-0.921875 0,-0.46875 0.28125,-1.65625 0.5625,-2.15625 C 2.265625,-3.78125 2.6875,-4.1875 3.109375,-4.1875 c 0.65625,0 0.796875,0.8125 0.796875,0.859375 0,0.046875 -0.015625,0.109375 -0.03125,0.140625 z m 0,0"
           id="id-aafbad09-3a62-4a15-bffb-3e19b526fef7-9" /></symbol><symbol
         overflow="visible"
         id="id-5aaee7f0-7d7c-43d5-8f58-034813796c72-3"><path
           style="stroke:none;stroke-width:0"
           d=""
           id="id-976f153d-5858-4d0c-829b-8ede4adb5020-1" /></symbol><symbol
         overflow="visible"
         id="id-5517ef3f-082e-413e-8204-a2c434752f32-9"><path
           style="stroke:none;stroke-width:0"
           d="m 2.328125,-4.4375 c 0,-0.1875 0,-0.1875 -0.203125,-0.1875 -0.453125,0.4375 -1.078125,0.4375 -1.359375,0.4375 v 0.25 c 0.15625,0 0.625,0 1,-0.1875 v 3.546875 c 0,0.234375 0,0.328125 -0.6875,0.328125 H 0.8125 V 0 c 0.125,0 0.984375,-0.03125 1.234375,-0.03125 0.21875,0 1.09375,0.03125 1.25,0.03125 V -0.25 H 3.03125 c -0.703125,0 -0.703125,-0.09375 -0.703125,-0.328125 z m 0,0"
           id="id-45356f39-daae-4eca-b56d-6717c6da42a6-4" /></symbol></g><marker
       style="overflow:visible"
       id="Arrow2Lend-3"
       refX="0"
       refY="0"
       orient="auto"
       inkscape:stockid="Arrow2Lend"
       inkscape:isstock="true"><path
         transform="matrix(-1.1,0,0,-1.1,-1.1,0)"
         d="M 8.7185878,4.0337352 -2.2072895,0.01601326 8.7185884,-4.0017078 c -1.7454984,2.3720609 -1.7354408,5.6174519 -6e-7,8.035443 z"
         style="fill:#ff0013;fill-opacity:1;fill-rule:evenodd;stroke:#ff0013;stroke-width:0.625;stroke-linejoin:round;stroke-opacity:1"
         id="path902-2" /></marker></defs><sodipodi:namedview
     pagecolor="#ffffff"
     bordercolor="#666666"
     borderopacity="1"
     objecttolerance="10"
     gridtolerance="10"
     guidetolerance="10"
     inkscape:pageopacity="0"
     inkscape:pageshadow="2"
     inkscape:window-width="1366"
     inkscape:window-height="717"
     id="namedview4"
     showgrid="false"
     inkscape:zoom="0.9983453"
     inkscape:cx="178.31615"
     inkscape:cy="182.0119"
     inkscape:window-x="0"
     inkscape:window-y="24"
     inkscape:window-maximized="1"
     inkscape:current-layer="g10"
     inkscape:document-rotation="0" /><g
     id="g10"
     inkscape:groupmode="layer"
     inkscape:label="triangulo"
     transform="scale(1.33333)"><g
       id="g12"
       transform="translate(-0.32802,0.15387)"><g
         id="g14"><path
           d="M 9.574,38.07 H 238.715 V 259.965 H 9.574 Z"
           style="fill:none;stroke:#000000;stroke-width:1.17921;stroke-linecap:butt;stroke-linejoin:miter;stroke-miterlimit:4;stroke-dasharray:7.07528, 2.35842;stroke-dashoffset:0;stroke-opacity:1"
           id="path16" /></g><g
         id="g18"><path
           d="m 19.133,258.395 c 0,4.859 -3.945,8.8 -8.817,8.8 -4.871,0 -8.816,-3.941 -8.816,-8.8 0,-4.864 3.945,-8.805 8.816,-8.805 4.872,0 8.817,3.941 8.817,8.805 z"
           style="fill:#9f9292;fill-opacity:1;fill-rule:nonzero;stroke:#000000;stroke-width:2.02961;stroke-linecap:butt;stroke-linejoin:miter;stroke-miterlimit:4;stroke-dasharray:none;stroke-opacity:1"
           id="path20" /></g><g
         id="g22"><path
           d="m 18.652,35.074 c 0,4.864 -3.949,8.805 -8.82,8.805 -4.871,0 -8.816,-3.941 -8.816,-8.805 0,-4.863 3.945,-8.804 8.816,-8.804 4.871,0 8.82,3.941 8.82,8.804 z"
           style="fill:#9f9292;fill-opacity:1;fill-rule:nonzero;stroke:#000000;stroke-width:2.02961;stroke-linecap:butt;stroke-linejoin:miter;stroke-miterlimit:4;stroke-dasharray:none;stroke-opacity:1"
           id="path24" /></g><g
         id="g26"><path
           d="m 245.934,36.527 c 0,4.864 -3.946,8.805 -8.817,8.805 -4.871,0 -8.816,-3.941 -8.816,-8.805 0,-4.863 3.945,-8.804 8.816,-8.804 4.871,0 8.817,3.941 8.817,8.804 z"
           style="fill:#9f9292;fill-opacity:1;fill-rule:nonzero;stroke:#000000;stroke-width:2.02961;stroke-linecap:butt;stroke-linejoin:miter;stroke-miterlimit:4;stroke-dasharray:none;stroke-opacity:1"
           id="path28" /></g><path
         d="m 118.121,24.188 c -0.062,0.124 -0.187,0.25 -0.187,0.374 0,0.188 0.25,0.563 0.5,0.563 0.187,0 0.312,-0.125 1.437,-1.25 0.313,-0.313 1.125,-1.063 1.438,-1.375 0.375,3.125 1.5,6.125 4.437,6.125 1.625,0 3,-0.937 3.813,-1.563 0.562,-0.374 2.437,-1.937 2.437,-2.312 0,-0.125 -0.125,-0.5 -0.437,-0.5 -0.125,0 -0.188,0.062 -0.563,0.375 -2.562,2.5 -4,3.125 -5.187,3.125 -1.75,0 -2.438,-2.125 -2.438,-5.188 0,-0.25 0.125,-2.062 0.25,-2.312 0.063,-0.125 0.063,-0.188 0.875,-1 3.188,-3.188 8.875,-9.938 8.875,-16.125 0,-0.687 0,-3.125 -2.375,-3.125 -3.312,0 -6.25,6.562 -6.625,7.5 -1.937,4.375 -3.187,9 -3.187,13.75 z m 5.688,-5.563 c 0.062,-0.5 1.812,-9.313 4.062,-14 1.063,-2.125 1.938,-3.75 3.188,-3.75 1.375,0 1.375,1.437 1.375,2.063 0,6.687 -6.75,13.687 -8.625,15.687 z"
         style="fill:#000000;fill-opacity:1;fill-rule:nonzero;stroke:none"
         id="path30" /><path
         d="m 132.848,156.082 c -4.219,0 -7.407,2.063 -8.625,3.469 -1.078,1.172 -1.172,2.062 -1.172,2.109 0,0.188 0.14,0.235 0.328,0.235 0.469,0 1.172,-0.422 1.406,-0.563 0.61,-0.422 0.703,-0.609 0.891,-1.172 0.422,-1.219 1.265,-2.25 5.015,-2.437 -0.515,6.75 -2.343,13.312 -4.828,19.547 -0.187,0.468 -0.187,0.515 -0.187,0.515 0,0.094 0.094,0.235 0.281,0.235 0.469,0 1.922,-0.657 2.25,-1.454 1.547,-3.656 4.031,-10.5 4.922,-18.843 h 1.547 c 3.656,0 7.125,1.406 7.125,4.406 0,2.25 -2.156,6.422 -7.922,6.609 -0.656,0.047 -0.984,0.047 -1.828,0.563 -0.516,0.375 -0.75,0.703 -0.75,0.89 0,0.188 0.187,0.188 0.562,0.188 5.438,0 12.516,-4.594 12.516,-9.516 0,-3.422 -4.031,-4.781 -7.5,-4.781 z"
         style="fill:#000000;fill-opacity:1;fill-rule:nonzero;stroke:none"
         id="path32" /><g
         id="g34"><path
           d="M 18.648,250.254 232.074,44.492"
           style="fill:none;stroke:#000000;stroke-width:1.17921;stroke-linecap:butt;stroke-linejoin:miter;stroke-miterlimit:4;stroke-dasharray:7.07528, 2.35842;stroke-dashoffset:0;stroke-opacity:1"
           id="path36" /></g><path
         d="m 250.598,268.473 c -0.563,0 -0.891,0 -1.641,0.468 -0.234,0.141 -0.937,0.61 -0.937,0.985 0,0.187 0.14,0.187 0.281,0.187 2.015,0.094 3.234,0.375 6.234,1.407 2.063,0.75 4.172,1.5 6.563,1.5 3.468,0 6.375,-3.094 6.375,-4.313 0,-0.141 -0.094,-0.234 -0.282,-0.234 -0.281,0 -0.89,0.234 -1.406,0.562 -0.656,0.469 -0.75,0.656 -0.89,1.078 -0.422,1.172 -1.032,1.266 -1.829,1.266 -1.968,0 -3.328,-0.469 -7.64,-1.922 5.156,-1.5 11.672,-6.656 11.672,-13.875 0,-4.078 -2.203,-7.359 -6.61,-7.359 -6.093,0 -13.172,6.281 -13.172,12.468 0,3.188 1.875,5.579 5.204,5.579 3.046,0 6.421,-1.969 6.421,-2.672 0,-0.188 -0.187,-0.188 -0.328,-0.188 -0.422,0 -0.937,0.281 -1.312,0.516 -1.266,0.656 -2.485,0.703 -2.813,0.703 -2.672,0 -4.64,-2.109 -4.64,-5.203 0,-3.703 3.375,-9.563 8.672,-9.563 3.796,0 6.046,3 6.046,6.985 0,2.953 -1.218,6.328 -4.078,8.859 -1.922,1.734 -4.125,2.766 -9,2.766 z"
         style="fill:#000000;fill-opacity:1;fill-rule:nonzero;stroke:none"
         id="path38" /><g
         id="g40"><path
           d="m 9.48,14.156 97.157,0.188"
           style="fill:none;stroke:#000000;stroke-width:0.749999;stroke-linecap:butt;stroke-linejoin:miter;stroke-miterlimit:4;stroke-dasharray:none;stroke-opacity:1"
           id="path42" /></g><g
         id="g44"
         transform="matrix(1,0.00193405,-0.00193405,1,0,0)"><path
           d="m 17.008,14.135 2.998,-2.998 -10.498,3.001 10.498,2.999 z"
           style="fill:#000000;fill-opacity:1;fill-rule:evenodd;stroke:#000000;stroke-width:0.799997;stroke-linecap:butt;stroke-linejoin:miter;stroke-miterlimit:4;stroke-dasharray:none;stroke-opacity:1"
           id="path46" /></g><g
         id="g48"><path
           d="m 140.727,15.648 98.554,-0.043"
           style="fill:none;stroke:#000000;stroke-width:0.749999;stroke-linecap:butt;stroke-linejoin:miter;stroke-miterlimit:4;stroke-dasharray:none;stroke-opacity:1"
           id="path50" /></g><g
         id="g52"
         transform="rotate(179.97619)"><path
           d="m -231.775,-15.706 3.002,-2.998 -10.502,2.999 10.503,3.001 z"
           style="fill:#000000;fill-opacity:1;fill-rule:evenodd;stroke:#000000;stroke-width:0.799999;stroke-linecap:butt;stroke-linejoin:miter;stroke-miterlimit:4;stroke-dasharray:none;stroke-opacity:1"
           id="path54" /></g></g><path
       style="fill:none;stroke:#0029c9;stroke-width:1.5;stroke-linecap:butt;stroke-linejoin:miter;stroke-miterlimit:4;stroke-dasharray:none;stroke-opacity:1;marker-end:url(#Arrow1Lend)"
       d="M 125.4418,149.9089 43.417807,75.010341"
       id="path879" /><path
       style="fill:none;stroke:#0029c9;stroke-width:1.5;stroke-linecap:butt;stroke-linejoin:miter;stroke-miterlimit:4;stroke-dasharray:none;stroke-opacity:1;marker-end:url(#Arrow1Lend-3)"
       d="M 125.4418,149.9089 44.598777,226.08065"
       id="path879-7" /><path
       style="fill:none;stroke:#0029c9;stroke-width:1.5;stroke-linecap:butt;stroke-linejoin:miter;stroke-miterlimit:4;stroke-dasharray:none;stroke-opacity:1;marker-end:url(#Arrow1Lend-3-5)"
       d="M 125.4418,149.9089 206.28483,73.737149"
       id="path879-7-5" /><g
       transform="matrix(2.99999,0,0,2.99999,89.600467,79.930037)"
       ns3:version="1.6.1"
       ns3:texconverter="pdflatex"
       ns3:pdfconverter="inkscape"
       ns3:text="$\\vec g_1$"
       ns3:preamble="/home/madrid/.config/inkscape/extensions/textext/default_packages.tex"
       ns3:scale="3.0"
       ns3:alignment="middle center"
       ns3:stroke-to-path="0"
       ns3:jacobian_sqrt="2.99999"
       id="g1728"
       style="fill:#0029c9;fill-opacity:1;stroke:none;stroke-opacity:1"><defs
   id="id-5c211b78-dcbf-44d6-a9ee-e206a052468e">
    <g
   id="id-37905af5-a863-46cf-b1df-ff9a12d78d1a">
      <symbol
   overflow="visible"
   id="id-f999b03c-d2ca-4eaa-9df1-8aaa2a2fdd54">
        <path
   style="stroke:none;stroke-width:0"
   d=""
   id="id-64859f4d-d144-4320-aaff-8cf1d0c9ca5a" />
      </symbol>
      <symbol
   overflow="visible"
   id="id-ecf232e9-187a-4302-a9c8-d22c23891d76">
        <path
   style="stroke:none;stroke-width:0"
   d="m 5.359375,-5.9375 c -0.140625,0.140625 -0.46875,0.421875 -0.46875,0.59375 0,0.09375 0.09375,0.203125 0.1875,0.203125 0.09375,0 0.140625,-0.078125 0.203125,-0.140625 C 5.390625,-5.421875 5.625,-5.703125 6.0625,-5.921875 6.125,-5.96875 6.234375,-6.015625 6.234375,-6.125 6.234375,-6.234375 6.15625,-6.28125 6.09375,-6.328125 5.875,-6.484375 5.765625,-6.65625 5.6875,-6.890625 5.65625,-6.984375 5.625,-7.125 5.484375,-7.125 c -0.140625,0 -0.203125,0.140625 -0.203125,0.21875 0,0.046875 0.078125,0.359375 0.234375,0.578125 H 2.15625 c -0.15625,0 -0.34375,0 -0.34375,0.203125 0,0.1875 0.1875,0.1875 0.34375,0.1875 z m 0,0"
   id="id-c8c66ba9-7f6b-41f8-ad29-3ee65f89c939" />
      </symbol>
      <symbol
   overflow="visible"
   id="id-dd761aa7-6f61-40dc-a172-3d0e517cb99a">
        <path
   style="stroke:none;stroke-width:0"
   d="M 4.6875,-3.765625 C 4.703125,-3.8125 4.71875,-3.875 4.71875,-3.9375 c 0,-0.171875 -0.109375,-0.265625 -0.28125,-0.265625 -0.09375,0 -0.375,0.0625 -0.40625,0.421875 -0.1875,-0.359375 -0.53125,-0.625 -0.9375,-0.625 -1.125,0 -2.359375,1.390625 -2.359375,2.828125 0,0.984375 0.59375,1.578125 1.3125,1.578125 0.59375,0 1.0625,-0.46875 1.15625,-0.578125 L 3.21875,-0.5625 C 3.015625,0.3125 2.890625,0.734375 2.890625,0.75 2.84375,0.84375 2.515625,1.828125 1.453125,1.828125 1.265625,1.828125 0.9375,1.8125 0.65625,1.71875 0.953125,1.640625 1.0625,1.375 1.0625,1.203125 c 0,-0.15625 -0.109375,-0.34375 -0.375,-0.34375 -0.21875,0 -0.53125,0.171875 -0.53125,0.578125 0,0.40625 0.359375,0.609375 1.3125,0.609375 1.25,0 1.96875,-0.78125 2.125,-1.375 z M 3.40625,-1.28125 C 3.34375,-1.015625 3.109375,-0.765625 2.890625,-0.578125 2.6875,-0.40625 2.375,-0.21875 2.078125,-0.21875 c -0.5,0 -0.640625,-0.515625 -0.640625,-0.921875 0,-0.46875 0.28125,-1.65625 0.5625,-2.15625 C 2.265625,-3.78125 2.6875,-4.1875 3.109375,-4.1875 c 0.65625,0 0.796875,0.8125 0.796875,0.859375 0,0.046875 -0.015625,0.109375 -0.03125,0.140625 z m 0,0"
   id="id-aafbad09-3a62-4a15-bffb-3e19b526fef7" />
      </symbol>
      <symbol
   overflow="visible"
   id="id-5aaee7f0-7d7c-43d5-8f58-034813796c72">
        <path
   style="stroke:none;stroke-width:0"
   d=""
   id="id-976f153d-5858-4d0c-829b-8ede4adb5020" />
      </symbol>
      <symbol
   overflow="visible"
   id="id-5517ef3f-082e-413e-8204-a2c434752f32">
        <path
   style="stroke:none;stroke-width:0"
   d="m 2.328125,-4.4375 c 0,-0.1875 0,-0.1875 -0.203125,-0.1875 -0.453125,0.4375 -1.078125,0.4375 -1.359375,0.4375 v 0.25 c 0.15625,0 0.625,0 1,-0.1875 v 3.546875 c 0,0.234375 0,0.328125 -0.6875,0.328125 H 0.8125 V 0 c 0.125,0 0.984375,-0.03125 1.234375,-0.03125 0.21875,0 1.09375,0.03125 1.25,0.03125 V -0.25 H 3.03125 c -0.703125,0 -0.703125,-0.09375 -0.703125,-0.328125 z m 0,0"
   id="id-45356f39-daae-4eca-b56d-6717c6da42a6" />
      </symbol>
    </g>
  </defs>
  <g
   id="id-f7e30f79-cd62-49f1-8960-376c72cf510c"
   transform="translate(-148.872,-127.64)"
   style="fill:#0029c9;fill-opacity:1;stroke:none;stroke-opacity:1">
    <g
   style="fill:#0029c9;fill-opacity:1;stroke:none;stroke-opacity:1"
   id="id-f9dafeaf-84c4-49a9-afdf-27bea9df99fa">
      <g
   transform="translate(148.287,134.765)"
   id="g1716"
   style="fill:#0029c9;fill-opacity:1;stroke:none;stroke-opacity:1"><path
   style="fill:#0029c9;fill-opacity:1;stroke:none;stroke-width:0;stroke-opacity:1"
   d="m 5.359375,-5.9375 c -0.140625,0.140625 -0.46875,0.421875 -0.46875,0.59375 0,0.09375 0.09375,0.203125 0.1875,0.203125 0.09375,0 0.140625,-0.078125 0.203125,-0.140625 C 5.390625,-5.421875 5.625,-5.703125 6.0625,-5.921875 6.125,-5.96875 6.234375,-6.015625 6.234375,-6.125 6.234375,-6.234375 6.15625,-6.28125 6.09375,-6.328125 5.875,-6.484375 5.765625,-6.65625 5.6875,-6.890625 5.65625,-6.984375 5.625,-7.125 5.484375,-7.125 c -0.140625,0 -0.203125,0.140625 -0.203125,0.21875 0,0.046875 0.078125,0.359375 0.234375,0.578125 H 2.15625 c -0.15625,0 -0.34375,0 -0.34375,0.203125 0,0.1875 0.1875,0.1875 0.34375,0.1875 z m 0,0"
   id="id-087dc61d-f625-47d5-abc6-5c8a47eacd8f" />
      </g></g>
    <g
   style="fill:#0029c9;fill-opacity:1;stroke:none;stroke-opacity:1"
   id="id-71dd6516-949a-490a-abae-6d3c1fe07c96">
      <g
   transform="translate(148.715,134.765)"
   id="g1720"
   style="fill:#0029c9;fill-opacity:1;stroke:none;stroke-opacity:1"><path
   style="fill:#0029c9;fill-opacity:1;stroke:none;stroke-width:0;stroke-opacity:1"
   d="M 4.6875,-3.765625 C 4.703125,-3.8125 4.71875,-3.875 4.71875,-3.9375 c 0,-0.171875 -0.109375,-0.265625 -0.28125,-0.265625 -0.09375,0 -0.375,0.0625 -0.40625,0.421875 -0.1875,-0.359375 -0.53125,-0.625 -0.9375,-0.625 -1.125,0 -2.359375,1.390625 -2.359375,2.828125 0,0.984375 0.59375,1.578125 1.3125,1.578125 0.59375,0 1.0625,-0.46875 1.15625,-0.578125 L 3.21875,-0.5625 C 3.015625,0.3125 2.890625,0.734375 2.890625,0.75 2.84375,0.84375 2.515625,1.828125 1.453125,1.828125 1.265625,1.828125 0.9375,1.8125 0.65625,1.71875 0.953125,1.640625 1.0625,1.375 1.0625,1.203125 c 0,-0.15625 -0.109375,-0.34375 -0.375,-0.34375 -0.21875,0 -0.53125,0.171875 -0.53125,0.578125 0,0.40625 0.359375,0.609375 1.3125,0.609375 1.25,0 1.96875,-0.78125 2.125,-1.375 z M 3.40625,-1.28125 C 3.34375,-1.015625 3.109375,-0.765625 2.890625,-0.578125 2.6875,-0.40625 2.375,-0.21875 2.078125,-0.21875 c -0.5,0 -0.640625,-0.515625 -0.640625,-0.921875 0,-0.46875 0.28125,-1.65625 0.5625,-2.15625 C 2.265625,-3.78125 2.6875,-4.1875 3.109375,-4.1875 c 0.65625,0 0.796875,0.8125 0.796875,0.859375 0,0.046875 -0.015625,0.109375 -0.03125,0.140625 z m 0,0"
   id="id-edcbe037-6427-4fe6-b978-def31e5e0436" />
      </g></g>
    <g
   style="fill:#0029c9;fill-opacity:1;stroke:none;stroke-opacity:1"
   id="id-9d9fb51c-fe07-4ca1-9ad7-5ebe7e8e5aa2">
      <g
   transform="translate(153.464,136.259)"
   id="g1724"
   style="fill:#0029c9;fill-opacity:1;stroke:none;stroke-opacity:1"><path
   style="fill:#0029c9;fill-opacity:1;stroke:none;stroke-width:0;stroke-opacity:1"
   d="m 2.328125,-4.4375 c 0,-0.1875 0,-0.1875 -0.203125,-0.1875 -0.453125,0.4375 -1.078125,0.4375 -1.359375,0.4375 v 0.25 c 0.15625,0 0.625,0 1,-0.1875 v 3.546875 c 0,0.234375 0,0.328125 -0.6875,0.328125 H 0.8125 V 0 c 0.125,0 0.984375,-0.03125 1.234375,-0.03125 0.21875,0 1.09375,0.03125 1.25,0.03125 V -0.25 H 3.03125 c -0.703125,0 -0.703125,-0.09375 -0.703125,-0.328125 z m 0,0"
   id="id-527a4995-1dda-4089-be6b-641bc1fec2e6" />
      </g></g>
  </g>
</g><g
       transform="matrix(2.99999,0,0,2.99999,92.928075,185.468)"
       ns3:version="1.6.1"
       ns3:texconverter="pdflatex"
       ns3:pdfconverter="inkscape"
       ns3:text="$\\vec g_2$"
       ns3:preamble="/home/madrid/.config/inkscape/extensions/textext/default_packages.tex"
       ns3:scale="3.0"
       ns3:alignment="middle center"
       ns3:stroke-to-path="0"
       ns3:jacobian_sqrt="2.99999"
       style="fill:#0029c9;fill-opacity:1;stroke-width:0;stroke-opacity:1"
       id="g1728-1"><defs
   id="id-e3ca3176-0354-44ff-83b2-d012c41b5070">
    <g
   id="id-78e489cb-0f85-4d43-9f5f-04a968e8bb04"
   style="fill:#0029c9;fill-opacity:1;stroke-width:0;stroke-opacity:1">
      <symbol
   overflow="visible"
   id="id-9cb8055a-039b-42a2-956c-116bf9434dc0"
   style="fill:#0029c9;fill-opacity:1;stroke-width:0;stroke-opacity:1">
        <path
   style="fill:#0029c9;fill-opacity:1;stroke:#0029c9;stroke-width:0;stroke-opacity:1"
   d=""
   id="id-831da3ac-df71-4d20-89cc-e818eb7b0aa5" />
      </symbol>
      <symbol
   overflow="visible"
   id="id-dc103c75-ef79-4a3b-82a2-66d1a073a958"
   style="fill:#0029c9;fill-opacity:1;stroke-width:0;stroke-opacity:1">
        <path
   style="fill:#0029c9;fill-opacity:1;stroke:#0029c9;stroke-width:0;stroke-opacity:1"
   d="m 5.359375,-5.9375 c -0.140625,0.140625 -0.46875,0.421875 -0.46875,0.59375 0,0.09375 0.09375,0.203125 0.1875,0.203125 0.09375,0 0.140625,-0.078125 0.203125,-0.140625 C 5.390625,-5.421875 5.625,-5.703125 6.0625,-5.921875 6.125,-5.96875 6.234375,-6.015625 6.234375,-6.125 6.234375,-6.234375 6.15625,-6.28125 6.09375,-6.328125 5.875,-6.484375 5.765625,-6.65625 5.6875,-6.890625 5.65625,-6.984375 5.625,-7.125 5.484375,-7.125 c -0.140625,0 -0.203125,0.140625 -0.203125,0.21875 0,0.046875 0.078125,0.359375 0.234375,0.578125 H 2.15625 c -0.15625,0 -0.34375,0 -0.34375,0.203125 0,0.1875 0.1875,0.1875 0.34375,0.1875 z m 0,0"
   id="id-00a9f629-06a5-47f8-8124-53be219b47a1" />
      </symbol>
      <symbol
   overflow="visible"
   id="id-08b0da52-0b7c-43bd-86f2-70115f26d994"
   style="fill:#0029c9;fill-opacity:1;stroke-width:0;stroke-opacity:1">
        <path
   style="fill:#0029c9;fill-opacity:1;stroke:#0029c9;stroke-width:0;stroke-opacity:1"
   d="M 4.6875,-3.765625 C 4.703125,-3.8125 4.71875,-3.875 4.71875,-3.9375 c 0,-0.171875 -0.109375,-0.265625 -0.28125,-0.265625 -0.09375,0 -0.375,0.0625 -0.40625,0.421875 -0.1875,-0.359375 -0.53125,-0.625 -0.9375,-0.625 -1.125,0 -2.359375,1.390625 -2.359375,2.828125 0,0.984375 0.59375,1.578125 1.3125,1.578125 0.59375,0 1.0625,-0.46875 1.15625,-0.578125 L 3.21875,-0.5625 C 3.015625,0.3125 2.890625,0.734375 2.890625,0.75 2.84375,0.84375 2.515625,1.828125 1.453125,1.828125 1.265625,1.828125 0.9375,1.8125 0.65625,1.71875 0.953125,1.640625 1.0625,1.375 1.0625,1.203125 c 0,-0.15625 -0.109375,-0.34375 -0.375,-0.34375 -0.21875,0 -0.53125,0.171875 -0.53125,0.578125 0,0.40625 0.359375,0.609375 1.3125,0.609375 1.25,0 1.96875,-0.78125 2.125,-1.375 z M 3.40625,-1.28125 C 3.34375,-1.015625 3.109375,-0.765625 2.890625,-0.578125 2.6875,-0.40625 2.375,-0.21875 2.078125,-0.21875 c -0.5,0 -0.640625,-0.515625 -0.640625,-0.921875 0,-0.46875 0.28125,-1.65625 0.5625,-2.15625 C 2.265625,-3.78125 2.6875,-4.1875 3.109375,-4.1875 c 0.65625,0 0.796875,0.8125 0.796875,0.859375 0,0.046875 -0.015625,0.109375 -0.03125,0.140625 z m 0,0"
   id="id-f99fa0e0-0913-48cc-b5d8-0bbdfd695a3b" />
      </symbol>
      <symbol
   overflow="visible"
   id="id-b8bba3b3-a80e-4c6b-bf19-e368820fd52b"
   style="fill:#0029c9;fill-opacity:1;stroke-width:0;stroke-opacity:1">
        <path
   style="fill:#0029c9;fill-opacity:1;stroke:#0029c9;stroke-width:0;stroke-opacity:1"
   d=""
   id="id-253c2b3a-f0c2-4cc4-9d70-bdf747c011bb" />
      </symbol>
      <symbol
   overflow="visible"
   id="id-edf90724-1900-432a-bf8d-38e3f3a4c524"
   style="fill:#0029c9;fill-opacity:1;stroke-width:0;stroke-opacity:1">
        <path
   style="fill:#0029c9;fill-opacity:1;stroke:#0029c9;stroke-width:0;stroke-opacity:1"
   d="M 3.515625,-1.265625 H 3.28125 c -0.015625,0.15625 -0.09375,0.5625 -0.1875,0.625 C 3.046875,-0.59375 2.515625,-0.59375 2.40625,-0.59375 H 1.125 c 0.734375,-0.640625 0.984375,-0.84375 1.390625,-1.171875 0.515625,-0.40625 1,-0.84375 1,-1.5 0,-0.84375 -0.734375,-1.359375 -1.625,-1.359375 -0.859375,0 -1.453125,0.609375 -1.453125,1.25 0,0.34375 0.296875,0.390625 0.375,0.390625 0.15625,0 0.359375,-0.125 0.359375,-0.375 0,-0.125 -0.046875,-0.375 -0.40625,-0.375 C 0.984375,-4.21875 1.453125,-4.375 1.78125,-4.375 c 0.703125,0 1.0625,0.546875 1.0625,1.109375 0,0.609375 -0.4375,1.078125 -0.65625,1.328125 L 0.515625,-0.265625 C 0.4375,-0.203125 0.4375,-0.1875 0.4375,0 h 2.875 z m 0,0"
   id="id-ccd6135a-c8ae-4bdd-bcba-94b6b8c5d254" />
      </symbol>
    </g>
  </defs>
  <g
   id="id-786468ae-2606-4b1e-ae72-36a023364f22"
   transform="translate(-148.872,-127.64)"
   style="fill:#0029c9;fill-opacity:1;stroke-width:0;stroke-opacity:1">
    <g
   style="fill:#0029c9;fill-opacity:1;stroke-width:0;stroke-opacity:1"
   id="id-5a3ad1d1-8491-4b71-a8ba-aab7d2366517">
      <g
   transform="translate(148.287,134.765)"
   style="fill:#0029c9;fill-opacity:1;stroke-width:0;stroke-opacity:1"
   id="g2079"><path
   style="fill:#0029c9;fill-opacity:1;stroke:#0029c9;stroke-width:0;stroke-opacity:1"
   d="m 5.359375,-5.9375 c -0.140625,0.140625 -0.46875,0.421875 -0.46875,0.59375 0,0.09375 0.09375,0.203125 0.1875,0.203125 0.09375,0 0.140625,-0.078125 0.203125,-0.140625 C 5.390625,-5.421875 5.625,-5.703125 6.0625,-5.921875 6.125,-5.96875 6.234375,-6.015625 6.234375,-6.125 6.234375,-6.234375 6.15625,-6.28125 6.09375,-6.328125 5.875,-6.484375 5.765625,-6.65625 5.6875,-6.890625 5.65625,-6.984375 5.625,-7.125 5.484375,-7.125 c -0.140625,0 -0.203125,0.140625 -0.203125,0.21875 0,0.046875 0.078125,0.359375 0.234375,0.578125 H 2.15625 c -0.15625,0 -0.34375,0 -0.34375,0.203125 0,0.1875 0.1875,0.1875 0.34375,0.1875 z m 0,0"
   id="id-d1da41c5-ad56-4e22-ad77-1c28d60e5b7d" />
      </g></g>
    <g
   style="fill:#0029c9;fill-opacity:1;stroke-width:0;stroke-opacity:1"
   id="id-4ed38366-dd74-4a91-bb39-641bf0fa3118">
      <g
   transform="translate(148.715,134.765)"
   style="fill:#0029c9;fill-opacity:1;stroke-width:0;stroke-opacity:1"
   id="g2083"><path
   style="fill:#0029c9;fill-opacity:1;stroke:#0029c9;stroke-width:0;stroke-opacity:1"
   d="M 4.6875,-3.765625 C 4.703125,-3.8125 4.71875,-3.875 4.71875,-3.9375 c 0,-0.171875 -0.109375,-0.265625 -0.28125,-0.265625 -0.09375,0 -0.375,0.0625 -0.40625,0.421875 -0.1875,-0.359375 -0.53125,-0.625 -0.9375,-0.625 -1.125,0 -2.359375,1.390625 -2.359375,2.828125 0,0.984375 0.59375,1.578125 1.3125,1.578125 0.59375,0 1.0625,-0.46875 1.15625,-0.578125 L 3.21875,-0.5625 C 3.015625,0.3125 2.890625,0.734375 2.890625,0.75 2.84375,0.84375 2.515625,1.828125 1.453125,1.828125 1.265625,1.828125 0.9375,1.8125 0.65625,1.71875 0.953125,1.640625 1.0625,1.375 1.0625,1.203125 c 0,-0.15625 -0.109375,-0.34375 -0.375,-0.34375 -0.21875,0 -0.53125,0.171875 -0.53125,0.578125 0,0.40625 0.359375,0.609375 1.3125,0.609375 1.25,0 1.96875,-0.78125 2.125,-1.375 z M 3.40625,-1.28125 C 3.34375,-1.015625 3.109375,-0.765625 2.890625,-0.578125 2.6875,-0.40625 2.375,-0.21875 2.078125,-0.21875 c -0.5,0 -0.640625,-0.515625 -0.640625,-0.921875 0,-0.46875 0.28125,-1.65625 0.5625,-2.15625 C 2.265625,-3.78125 2.6875,-4.1875 3.109375,-4.1875 c 0.65625,0 0.796875,0.8125 0.796875,0.859375 0,0.046875 -0.015625,0.109375 -0.03125,0.140625 z m 0,0"
   id="id-62311b84-e961-481f-9869-f98994460ac1" />
      </g></g>
    <g
   style="fill:#0029c9;fill-opacity:1;stroke-width:0;stroke-opacity:1"
   id="id-629c2149-55aa-479c-b247-1db047d79e64">
      <g
   transform="translate(153.464,136.259)"
   style="fill:#0029c9;fill-opacity:1;stroke-width:0;stroke-opacity:1"
   id="g2087"><path
   style="fill:#0029c9;fill-opacity:1;stroke:#0029c9;stroke-width:0;stroke-opacity:1"
   d="M 3.515625,-1.265625 H 3.28125 c -0.015625,0.15625 -0.09375,0.5625 -0.1875,0.625 C 3.046875,-0.59375 2.515625,-0.59375 2.40625,-0.59375 H 1.125 c 0.734375,-0.640625 0.984375,-0.84375 1.390625,-1.171875 0.515625,-0.40625 1,-0.84375 1,-1.5 0,-0.84375 -0.734375,-1.359375 -1.625,-1.359375 -0.859375,0 -1.453125,0.609375 -1.453125,1.25 0,0.34375 0.296875,0.390625 0.375,0.390625 0.15625,0 0.359375,-0.125 0.359375,-0.375 0,-0.125 -0.046875,-0.375 -0.40625,-0.375 C 0.984375,-4.21875 1.453125,-4.375 1.78125,-4.375 c 0.703125,0 1.0625,0.546875 1.0625,1.109375 0,0.609375 -0.4375,1.078125 -0.65625,1.328125 L 0.515625,-0.265625 C 0.4375,-0.203125 0.4375,-0.1875 0.4375,0 h 2.875 z m 0,0"
   id="id-a136fff5-7409-4bec-b76e-9d20088fad07" />
      </g></g>
  </g>
</g><g
       transform="matrix(2.99999,0,0,2.99999,171.33484,114.38505)"
       ns3:version="1.6.1"
       ns3:texconverter="pdflatex"
       ns3:pdfconverter="inkscape"
       ns3:text="$\\vec g_3$"
       ns3:preamble="/home/madrid/.config/inkscape/extensions/textext/default_packages.tex"
       ns3:scale="3.0"
       ns3:alignment="middle center"
       ns3:stroke-to-path="0"
       ns3:jacobian_sqrt="2.99999"
       style="fill:#0029c9;fill-opacity:1;stroke-width:0;stroke-opacity:1"
       id="g1728-2"><defs
   id="id-ac0a0f58-3ede-402d-a123-e515b7097d5c">
    <g
   id="id-f85b7550-4bf0-4722-8ef4-da06af3198cf"
   style="fill:#0029c9;fill-opacity:1;stroke-width:0;stroke-opacity:1">
      <symbol
   overflow="visible"
   id="id-dbe26ac7-0918-4fa9-ad12-1e4f25706f7e"
   style="fill:#0029c9;fill-opacity:1;stroke-width:0;stroke-opacity:1">
        <path
   style="fill:#0029c9;fill-opacity:1;stroke:#0029c9;stroke-width:0;stroke-opacity:1"
   d=""
   id="id-74c8555c-d995-4e4e-ba48-10e1aca794f9" />
      </symbol>
      <symbol
   overflow="visible"
   id="id-d3ab29ce-f57d-442f-af2e-ec6ec448daca"
   style="fill:#0029c9;fill-opacity:1;stroke-width:0;stroke-opacity:1">
        <path
   style="fill:#0029c9;fill-opacity:1;stroke:#0029c9;stroke-width:0;stroke-opacity:1"
   d="m 5.359375,-5.9375 c -0.140625,0.140625 -0.46875,0.421875 -0.46875,0.59375 0,0.09375 0.09375,0.203125 0.1875,0.203125 0.09375,0 0.140625,-0.078125 0.203125,-0.140625 C 5.390625,-5.421875 5.625,-5.703125 6.0625,-5.921875 6.125,-5.96875 6.234375,-6.015625 6.234375,-6.125 6.234375,-6.234375 6.15625,-6.28125 6.09375,-6.328125 5.875,-6.484375 5.765625,-6.65625 5.6875,-6.890625 5.65625,-6.984375 5.625,-7.125 5.484375,-7.125 c -0.140625,0 -0.203125,0.140625 -0.203125,0.21875 0,0.046875 0.078125,0.359375 0.234375,0.578125 H 2.15625 c -0.15625,0 -0.34375,0 -0.34375,0.203125 0,0.1875 0.1875,0.1875 0.34375,0.1875 z m 0,0"
   id="id-f4b11e73-0b20-475d-ba27-72e6bf15c44d" />
      </symbol>
      <symbol
   overflow="visible"
   id="id-ce4da679-dc73-4c1b-a214-494dc890aa24"
   style="fill:#0029c9;fill-opacity:1;stroke-width:0;stroke-opacity:1">
        <path
   style="fill:#0029c9;fill-opacity:1;stroke:#0029c9;stroke-width:0;stroke-opacity:1"
   d="M 4.6875,-3.765625 C 4.703125,-3.8125 4.71875,-3.875 4.71875,-3.9375 c 0,-0.171875 -0.109375,-0.265625 -0.28125,-0.265625 -0.09375,0 -0.375,0.0625 -0.40625,0.421875 -0.1875,-0.359375 -0.53125,-0.625 -0.9375,-0.625 -1.125,0 -2.359375,1.390625 -2.359375,2.828125 0,0.984375 0.59375,1.578125 1.3125,1.578125 0.59375,0 1.0625,-0.46875 1.15625,-0.578125 L 3.21875,-0.5625 C 3.015625,0.3125 2.890625,0.734375 2.890625,0.75 2.84375,0.84375 2.515625,1.828125 1.453125,1.828125 1.265625,1.828125 0.9375,1.8125 0.65625,1.71875 0.953125,1.640625 1.0625,1.375 1.0625,1.203125 c 0,-0.15625 -0.109375,-0.34375 -0.375,-0.34375 -0.21875,0 -0.53125,0.171875 -0.53125,0.578125 0,0.40625 0.359375,0.609375 1.3125,0.609375 1.25,0 1.96875,-0.78125 2.125,-1.375 z M 3.40625,-1.28125 C 3.34375,-1.015625 3.109375,-0.765625 2.890625,-0.578125 2.6875,-0.40625 2.375,-0.21875 2.078125,-0.21875 c -0.5,0 -0.640625,-0.515625 -0.640625,-0.921875 0,-0.46875 0.28125,-1.65625 0.5625,-2.15625 C 2.265625,-3.78125 2.6875,-4.1875 3.109375,-4.1875 c 0.65625,0 0.796875,0.8125 0.796875,0.859375 0,0.046875 -0.015625,0.109375 -0.03125,0.140625 z m 0,0"
   id="id-95417545-c39a-4d7c-be15-03a7c812de81" />
      </symbol>
      <symbol
   overflow="visible"
   id="id-284362ea-9480-4583-b31a-f5bc98f866d9"
   style="fill:#0029c9;fill-opacity:1;stroke-width:0;stroke-opacity:1">
        <path
   style="fill:#0029c9;fill-opacity:1;stroke:#0029c9;stroke-width:0;stroke-opacity:1"
   d=""
   id="id-48a72d98-672c-4c78-a206-64cb400d1c74" />
      </symbol>
      <symbol
   overflow="visible"
   id="id-12cc69f5-a49a-4d4b-8c8e-371cefea6ad0"
   style="fill:#0029c9;fill-opacity:1;stroke-width:0;stroke-opacity:1">
        <path
   style="fill:#0029c9;fill-opacity:1;stroke:#0029c9;stroke-width:0;stroke-opacity:1"
   d="m 1.90625,-2.328125 c 0.546875,0 0.9375,0.375 0.9375,1.125 0,0.859375 -0.515625,1.125 -0.90625,1.125 -0.28125,0 -0.90625,-0.078125 -1.1875,-0.5 0.328125,0 0.40625,-0.234375 0.40625,-0.390625 0,-0.21875 -0.171875,-0.375 -0.390625,-0.375 -0.1875,0 -0.390625,0.125 -0.390625,0.40625 0,0.65625 0.71875,1.078125 1.5625,1.078125 0.96875,0 1.640625,-0.65625 1.640625,-1.34375 0,-0.546875 -0.4375,-1.09375 -1.203125,-1.25 0.71875,-0.265625 0.984375,-0.78125 0.984375,-1.21875 0,-0.546875 -0.625,-0.953125 -1.40625,-0.953125 -0.765625,0 -1.359375,0.375 -1.359375,0.9375 0,0.234375 0.15625,0.359375 0.359375,0.359375 0.21875,0 0.359375,-0.15625 0.359375,-0.34375 0,-0.203125 -0.140625,-0.359375 -0.359375,-0.375 0.25,-0.296875 0.71875,-0.375 0.984375,-0.375 0.3125,0 0.75,0.15625 0.75,0.75 0,0.296875 -0.09375,0.625 -0.28125,0.828125 -0.21875,0.265625 -0.421875,0.28125 -0.765625,0.3125 -0.171875,0.015625 -0.1875,0.015625 -0.21875,0.015625 -0.015625,0 -0.078125,0.015625 -0.078125,0.09375 0,0.09375 0.0625,0.09375 0.1875,0.09375 z m 0,0"
   id="id-b03dbf86-0c47-4729-9fb8-1f1a964dcbb9" />
      </symbol>
    </g>
  </defs>
  <g
   id="id-0f314091-f514-4cba-ab3a-0c691a731100"
   transform="translate(-148.872,-127.64)"
   style="fill:#0029c9;fill-opacity:1;stroke-width:0;stroke-opacity:1">
    <g
   style="fill:#0029c9;fill-opacity:1;stroke-width:0;stroke-opacity:1"
   id="id-05e9e155-2436-4069-9925-3e1f15b2afec">
      <g
   transform="translate(148.287,134.765)"
   style="fill:#0029c9;fill-opacity:1;stroke-width:0;stroke-opacity:1"
   id="g2329"><path
   style="fill:#0029c9;fill-opacity:1;stroke:#0029c9;stroke-width:0;stroke-opacity:1"
   d="m 5.359375,-5.9375 c -0.140625,0.140625 -0.46875,0.421875 -0.46875,0.59375 0,0.09375 0.09375,0.203125 0.1875,0.203125 0.09375,0 0.140625,-0.078125 0.203125,-0.140625 C 5.390625,-5.421875 5.625,-5.703125 6.0625,-5.921875 6.125,-5.96875 6.234375,-6.015625 6.234375,-6.125 6.234375,-6.234375 6.15625,-6.28125 6.09375,-6.328125 5.875,-6.484375 5.765625,-6.65625 5.6875,-6.890625 5.65625,-6.984375 5.625,-7.125 5.484375,-7.125 c -0.140625,0 -0.203125,0.140625 -0.203125,0.21875 0,0.046875 0.078125,0.359375 0.234375,0.578125 H 2.15625 c -0.15625,0 -0.34375,0 -0.34375,0.203125 0,0.1875 0.1875,0.1875 0.34375,0.1875 z m 0,0"
   id="id-479899b8-779d-4b73-9e65-5833287da3da" />
      </g></g>
    <g
   style="fill:#0029c9;fill-opacity:1;stroke-width:0;stroke-opacity:1"
   id="id-323bc718-be28-4905-8f9c-f14cba6c903d">
      <g
   transform="translate(148.715,134.765)"
   style="fill:#0029c9;fill-opacity:1;stroke-width:0;stroke-opacity:1"
   id="g2333"><path
   style="fill:#0029c9;fill-opacity:1;stroke:#0029c9;stroke-width:0;stroke-opacity:1"
   d="M 4.6875,-3.765625 C 4.703125,-3.8125 4.71875,-3.875 4.71875,-3.9375 c 0,-0.171875 -0.109375,-0.265625 -0.28125,-0.265625 -0.09375,0 -0.375,0.0625 -0.40625,0.421875 -0.1875,-0.359375 -0.53125,-0.625 -0.9375,-0.625 -1.125,0 -2.359375,1.390625 -2.359375,2.828125 0,0.984375 0.59375,1.578125 1.3125,1.578125 0.59375,0 1.0625,-0.46875 1.15625,-0.578125 L 3.21875,-0.5625 C 3.015625,0.3125 2.890625,0.734375 2.890625,0.75 2.84375,0.84375 2.515625,1.828125 1.453125,1.828125 1.265625,1.828125 0.9375,1.8125 0.65625,1.71875 0.953125,1.640625 1.0625,1.375 1.0625,1.203125 c 0,-0.15625 -0.109375,-0.34375 -0.375,-0.34375 -0.21875,0 -0.53125,0.171875 -0.53125,0.578125 0,0.40625 0.359375,0.609375 1.3125,0.609375 1.25,0 1.96875,-0.78125 2.125,-1.375 z M 3.40625,-1.28125 C 3.34375,-1.015625 3.109375,-0.765625 2.890625,-0.578125 2.6875,-0.40625 2.375,-0.21875 2.078125,-0.21875 c -0.5,0 -0.640625,-0.515625 -0.640625,-0.921875 0,-0.46875 0.28125,-1.65625 0.5625,-2.15625 C 2.265625,-3.78125 2.6875,-4.1875 3.109375,-4.1875 c 0.65625,0 0.796875,0.8125 0.796875,0.859375 0,0.046875 -0.015625,0.109375 -0.03125,0.140625 z m 0,0"
   id="id-5251e4c0-4403-4949-ae3a-0fab01f101b0" />
      </g></g>
    <g
   style="fill:#0029c9;fill-opacity:1;stroke-width:0;stroke-opacity:1"
   id="id-09daf3d2-ce85-4d45-8edb-3dd2a350f8f7">
      <g
   transform="translate(153.464,136.259)"
   style="fill:#0029c9;fill-opacity:1;stroke-width:0;stroke-opacity:1"
   id="g2337"><path
   style="fill:#0029c9;fill-opacity:1;stroke:#0029c9;stroke-width:0;stroke-opacity:1"
   d="m 1.90625,-2.328125 c 0.546875,0 0.9375,0.375 0.9375,1.125 0,0.859375 -0.515625,1.125 -0.90625,1.125 -0.28125,0 -0.90625,-0.078125 -1.1875,-0.5 0.328125,0 0.40625,-0.234375 0.40625,-0.390625 0,-0.21875 -0.171875,-0.375 -0.390625,-0.375 -0.1875,0 -0.390625,0.125 -0.390625,0.40625 0,0.65625 0.71875,1.078125 1.5625,1.078125 0.96875,0 1.640625,-0.65625 1.640625,-1.34375 0,-0.546875 -0.4375,-1.09375 -1.203125,-1.25 0.71875,-0.265625 0.984375,-0.78125 0.984375,-1.21875 0,-0.546875 -0.625,-0.953125 -1.40625,-0.953125 -0.765625,0 -1.359375,0.375 -1.359375,0.9375 0,0.234375 0.15625,0.359375 0.359375,0.359375 0.21875,0 0.359375,-0.15625 0.359375,-0.34375 0,-0.203125 -0.140625,-0.359375 -0.359375,-0.375 0.25,-0.296875 0.71875,-0.375 0.984375,-0.375 0.3125,0 0.75,0.15625 0.75,0.75 0,0.296875 -0.09375,0.625 -0.28125,0.828125 -0.21875,0.265625 -0.421875,0.28125 -0.765625,0.3125 -0.171875,0.015625 -0.1875,0.015625 -0.21875,0.015625 -0.015625,0 -0.078125,0.015625 -0.078125,0.09375 0,0.09375 0.0625,0.09375 0.1875,0.09375 z m 0,0"
   id="id-0591587c-10f3-45d8-892d-12f28a957df1" />
      </g></g>
  </g>
</g><path
       style="fill:none;stroke:#ff0013;stroke-width:1.12500281;stroke-linecap:butt;stroke-linejoin:miter;stroke-opacity:1;stroke-miterlimit:4;stroke-dasharray:none;marker-end:url(#Arrow2Lend)"
       d="m 125.4418,149.9089 0.89626,-94.089781"
       id="path2385" /><path
       style="fill:none;stroke:#ff0013;stroke-width:1.125;stroke-linecap:butt;stroke-linejoin:miter;stroke-miterlimit:4;stroke-dasharray:none;stroke-opacity:1;marker-end:url(#Arrow2Lend-3)"
       d="m 125.4418,149.9089 94.09395,0.13409"
       id="path2385-0" /></g></svg>
